<svg width="256" height="256" viewBox="0 0 256 256" fill="none" xmlns="http://www.w3.org/2000/svg">
<g clip-path="url(#clip0_9687_16089)">
<path d="M256 0H0V256H256V0Z" fill="#001622"/>
<g filter="url(#filter0_d_9687_16089)">
<path d="M108.659 48.3944C89.4272 64.6747 83.6402 78.3991 79.218 101.494L84.2866 102.769C85.5498 130.598 89.1608 151.05 115.478 165.407L114.901 230C99.3163 195.991 76.3469 173.747 48.5051 149.554C44.4568 101.821 64.7671 67.1668 108.659 48.3944Z" fill="url(#paint0_linear_9687_16089)"/>
<path d="M147.336 48.3944C191.23 67.1667 211.544 101.825 207.495 149.558C179.653 173.752 156.679 195.991 141.095 230V165.407C167.412 151.05 170.446 130.599 171.709 102.769L176.782 101.494C172.36 78.3988 166.569 64.6748 147.336 48.3944Z" fill="url(#paint1_linear_9687_16089)"/>
<path d="M128.171 26C129.081 38.5596 130.32 58.9022 132.116 67.1919C136.397 86.954 134.103 96.4982 149.84 104.956C152.246 119.871 142.418 146.153 128.171 149.305V149.318C113.921 146.176 102.08 119.884 104.484 104.96C120.222 96.5021 117.936 86.957 122.223 67.1919C124.021 58.902 127.26 38.5594 128.171 26Z" fill="url(#paint2_linear_9687_16089)"/>
<path d="M100.383 53.9502C94.5866 59.7632 90.3282 65.4855 87.0576 71.6895C82.5522 80.2358 79.9666 89.61 77.7451 101.212L77.4785 102.603L78.8525 102.948L82.8418 103.952C83.4895 117.418 84.7612 129.352 89.1035 139.72C93.5078 150.235 101.025 159.039 113.969 166.283L113.458 223.534C97.9302 192.641 76.0045 171.488 49.9502 148.824C48.0657 125.46 52.1109 105.393 61.8945 88.8789C70.3639 74.5837 83.1886 62.8575 100.383 53.9502ZM155.613 53.9512C172.808 62.8586 185.633 74.585 194.104 88.8809C203.888 105.395 207.934 125.464 206.049 148.828C180.027 171.464 158.12 192.589 142.595 223.42V166.288C155.545 159.039 162.926 150.227 167.188 139.703C171.385 129.338 172.514 117.404 173.153 103.952L177.147 102.948L178.521 102.604L178.255 101.212C176.033 89.6097 173.446 80.2358 168.939 71.6895C165.668 65.4858 161.41 59.7639 155.613 53.9512ZM127.854 42.5273C128.001 44.467 128.155 46.4119 128.316 48.3232C128.963 55.9994 129.728 63.2544 130.649 67.5098C131.71 72.4051 132.362 76.6604 132.998 80.4863C133.63 84.2868 134.252 87.7008 135.256 90.7783C136.268 93.8825 137.677 96.6727 139.897 99.2461C141.988 101.669 144.751 103.843 148.463 105.911C149.382 112.945 147.61 122.568 143.881 130.931C141.961 135.237 139.553 139.136 136.802 142.128C134.131 145.032 131.203 147.013 128.143 147.771C125.078 147.001 122.036 145.014 119.191 142.11C116.247 139.105 113.59 135.194 111.422 130.884C107.207 122.503 104.982 112.903 105.862 105.914C109.573 103.846 112.337 101.672 114.428 99.25C116.649 96.6766 118.059 93.8865 119.073 90.7822C120.079 87.7044 120.701 84.2894 121.335 80.4883C121.973 76.6618 122.627 72.4059 123.688 67.5098C124.821 62.286 126.517 52.3385 127.854 42.5273Z" stroke="#D1F7FF" stroke-width="3"/>
</g>
<g filter="url(#filter1_ddd_9687_16089)">
<mask id="path-4-outside-1_9687_16089" maskUnits="userSpaceOnUse" x="22" y="121" width="219" height="61" fill="black">
<rect fill="white" x="22" y="121" width="219" height="61"/>
<path d="M72.8109 163.8C72.8109 167.587 72.2776 170.52 71.2109 172.6C70.1976 174.627 68.8109 176.12 67.0509 177.08C65.3443 178.04 63.3443 178.6 61.0509 178.76C58.8109 178.92 56.4376 179 53.9309 179H25.4509V124.6H53.2109C55.5043 124.6 57.7976 124.68 60.0909 124.84C62.3843 125 64.4376 125.587 66.2509 126.6C68.1176 127.56 69.6109 129.107 70.7309 131.24C71.8509 133.32 72.4109 136.307 72.4109 140.2C72.4109 142.973 72.0909 145.107 71.4509 146.6C70.8643 148.04 70.1976 149.107 69.4509 149.8C68.5976 150.6 67.6376 151.053 66.5709 151.16V151.32C67.6909 151.48 68.7309 152.013 69.6909 152.92C70.4376 153.72 71.1309 154.947 71.7709 156.6C72.4643 158.253 72.8109 160.653 72.8109 163.8ZM59.8509 140.68C59.8509 138.653 59.6909 137.08 59.3709 135.96C59.0509 134.84 58.5176 134.04 57.7709 133.56C57.0243 133.027 56.0376 132.733 54.8109 132.68C53.5843 132.573 52.0909 132.52 50.3309 132.52H37.6109V147.56H50.5709C52.4376 147.56 53.9576 147.533 55.1309 147.48C56.3576 147.373 57.3176 147.107 58.0109 146.68C58.7043 146.253 59.1843 145.587 59.4509 144.68C59.7176 143.72 59.8509 142.387 59.8509 140.68ZM60.2509 162.92C60.2509 160.893 60.1176 159.347 59.8509 158.28C59.5843 157.16 59.0776 156.36 58.3309 155.88C57.6376 155.347 56.6776 155.053 55.4509 155C54.2243 154.893 52.6509 154.84 50.7309 154.84H37.6109V171.16H50.9709C52.6776 171.16 54.1176 171.133 55.2909 171.08C56.5176 170.973 57.4776 170.653 58.1709 170.12C58.9176 169.587 59.4509 168.787 59.7709 167.72C60.0909 166.6 60.2509 165 60.2509 162.92ZM83.7322 179V124.6H126.052V132.52H95.8922V147.56H123.572V154.84H95.8922V171.16H126.532V179H83.7322ZM162.377 133.08V179H150.217V133.08H132.857V124.6H179.657V133.08H162.377ZM223.117 179L217.757 164.28H195.277L189.917 179H177.277L197.917 124.6H215.277L235.917 179H223.117ZM206.557 132.52L197.837 156.36H215.277L206.557 132.52Z"/>
</mask>
<path d="M72.8109 163.8C72.8109 167.587 72.2776 170.52 71.2109 172.6C70.1976 174.627 68.8109 176.12 67.0509 177.08C65.3443 178.04 63.3443 178.6 61.0509 178.76C58.8109 178.92 56.4376 179 53.9309 179H25.4509V124.6H53.2109C55.5043 124.6 57.7976 124.68 60.0909 124.84C62.3843 125 64.4376 125.587 66.2509 126.6C68.1176 127.56 69.6109 129.107 70.7309 131.24C71.8509 133.32 72.4109 136.307 72.4109 140.2C72.4109 142.973 72.0909 145.107 71.4509 146.6C70.8643 148.04 70.1976 149.107 69.4509 149.8C68.5976 150.6 67.6376 151.053 66.5709 151.16V151.32C67.6909 151.48 68.7309 152.013 69.6909 152.92C70.4376 153.72 71.1309 154.947 71.7709 156.6C72.4643 158.253 72.8109 160.653 72.8109 163.8ZM59.8509 140.68C59.8509 138.653 59.6909 137.08 59.3709 135.96C59.0509 134.84 58.5176 134.04 57.7709 133.56C57.0243 133.027 56.0376 132.733 54.8109 132.68C53.5843 132.573 52.0909 132.52 50.3309 132.52H37.6109V147.56H50.5709C52.4376 147.56 53.9576 147.533 55.1309 147.48C56.3576 147.373 57.3176 147.107 58.0109 146.68C58.7043 146.253 59.1843 145.587 59.4509 144.68C59.7176 143.72 59.8509 142.387 59.8509 140.68ZM60.2509 162.92C60.2509 160.893 60.1176 159.347 59.8509 158.28C59.5843 157.16 59.0776 156.36 58.3309 155.88C57.6376 155.347 56.6776 155.053 55.4509 155C54.2243 154.893 52.6509 154.84 50.7309 154.84H37.6109V171.16H50.9709C52.6776 171.16 54.1176 171.133 55.2909 171.08C56.5176 170.973 57.4776 170.653 58.1709 170.12C58.9176 169.587 59.4509 168.787 59.7709 167.72C60.0909 166.6 60.2509 165 60.2509 162.92ZM83.7322 179V124.6H126.052V132.52H95.8922V147.56H123.572V154.84H95.8922V171.16H126.532V179H83.7322ZM162.377 133.08V179H150.217V133.08H132.857V124.6H179.657V133.08H162.377ZM223.117 179L217.757 164.28H195.277L189.917 179H177.277L197.917 124.6H215.277L235.917 179H223.117ZM206.557 132.52L197.837 156.36H215.277L206.557 132.52Z" fill="url(#paint3_linear_9687_16089)"/>
<path d="M71.2109 172.6L68.5415 171.231L68.5345 171.245L68.5277 171.258L71.2109 172.6ZM67.0509 177.08L65.6144 174.446L65.5972 174.456L65.5802 174.465L67.0509 177.08ZM61.0509 178.76L60.8421 175.767L60.8372 175.768L61.0509 178.76ZM25.4509 179H22.4509V182H25.4509V179ZM25.4509 124.6V121.6H22.4509V124.6H25.4509ZM60.0909 124.84L60.2997 121.847L60.2997 121.847L60.0909 124.84ZM66.2509 126.6L64.7875 129.219L64.8328 129.244L64.8789 129.268L66.2509 126.6ZM70.7309 131.24L68.0747 132.635L68.0821 132.648L68.0895 132.662L70.7309 131.24ZM71.4509 146.6L68.6935 145.418L68.6829 145.443L68.6727 145.468L71.4509 146.6ZM69.4509 149.8L67.4096 147.602L67.4043 147.606L67.3991 147.611L69.4509 149.8ZM66.5709 151.16L66.2724 148.175L63.5709 148.445V151.16H66.5709ZM66.5709 151.32H63.5709V153.922L66.1467 154.29L66.5709 151.32ZM69.6909 152.92L71.8841 150.873L71.8196 150.804L71.7508 150.739L69.6909 152.92ZM71.7709 156.6L68.9732 157.683L68.9883 157.722L69.0044 157.76L71.7709 156.6ZM59.3709 135.96L62.2555 135.136V135.136L59.3709 135.96ZM57.7709 133.56L56.0272 136.001L56.0869 136.044L56.1487 136.084L57.7709 133.56ZM54.8109 132.68L54.5511 135.669L54.6157 135.674L54.6806 135.677L54.8109 132.68ZM37.6109 132.52V129.52H34.6109V132.52H37.6109ZM37.6109 147.56H34.6109V150.56H37.6109V147.56ZM55.1309 147.48L55.2672 150.477L55.3291 150.474L55.3908 150.469L55.1309 147.48ZM58.0109 146.68L59.5832 149.235H59.5832L58.0109 146.68ZM59.4509 144.68L62.329 145.526L62.3354 145.505L62.3415 145.483L59.4509 144.68ZM59.8509 158.28L56.9325 158.975L56.9364 158.991L56.9405 159.008L59.8509 158.28ZM58.3309 155.88L56.5018 158.258L56.6022 158.335L56.7087 158.404L58.3309 155.88ZM55.4509 155L55.191 157.989L55.2557 157.994L55.3206 157.997L55.4509 155ZM37.6109 154.84V151.84H34.6109V154.84H37.6109ZM37.6109 171.16H34.6109V174.16H37.6109V171.16ZM55.2909 171.08L55.4272 174.077L55.4891 174.074L55.5508 174.069L55.2909 171.08ZM58.1709 170.12L56.4272 167.679L56.384 167.71L56.3418 167.742L58.1709 170.12ZM59.7709 167.72L62.6444 168.582L62.6501 168.563L62.6555 168.544L59.7709 167.72ZM72.8109 163.8H69.8109C69.8109 167.373 69.2965 169.759 68.5415 171.231L71.2109 172.6L73.8804 173.969C75.2587 171.281 75.8109 167.8 75.8109 163.8H72.8109ZM71.2109 172.6L68.5277 171.258C67.7512 172.811 66.7683 173.817 65.6144 174.446L67.0509 177.08L68.4875 179.714C70.8536 178.423 72.644 176.442 73.8942 173.942L71.2109 172.6ZM67.0509 177.08L65.5802 174.465C64.3227 175.173 62.7686 175.633 60.8421 175.767L61.0509 178.76L61.2597 181.753C63.9199 181.567 66.3658 180.907 68.5217 179.695L67.0509 177.08ZM61.0509 178.76L60.8372 175.768C58.6759 175.922 56.3743 176 53.9309 176V179V182C56.5009 182 58.9459 181.918 61.2647 181.752L61.0509 178.76ZM53.9309 179V176H25.4509V179V182H53.9309V179ZM25.4509 179H28.4509V124.6H25.4509H22.4509V179H25.4509ZM25.4509 124.6V127.6H53.2109V124.6V121.6H25.4509V124.6ZM53.2109 124.6V127.6C55.4344 127.6 57.6581 127.678 59.8821 127.833L60.0909 124.84L60.2997 121.847C57.9371 121.682 55.5741 121.6 53.2109 121.6V124.6ZM60.0909 124.84L59.8821 127.833C61.7823 127.965 63.3992 128.443 64.7875 129.219L66.2509 126.6L67.7144 123.981C65.476 122.73 62.9862 122.035 60.2997 121.847L60.0909 124.84ZM66.2509 126.6L64.8789 129.268C66.1183 129.905 67.1977 130.964 68.0747 132.635L70.7309 131.24L73.3871 129.845C72.0241 127.249 70.1169 125.215 67.623 123.932L66.2509 126.6ZM70.7309 131.24L68.0895 132.662C68.8684 134.109 69.4109 136.518 69.4109 140.2H72.4109H75.4109C75.4109 136.095 74.8334 132.531 73.3724 129.818L70.7309 131.24ZM72.4109 140.2H69.4109C69.4109 142.814 69.0986 144.473 68.6935 145.418L71.4509 146.6L74.2084 147.782C75.0833 145.74 75.4109 143.133 75.4109 140.2H72.4109ZM71.4509 146.6L68.6727 145.468C68.1724 146.696 67.712 147.321 67.4096 147.602L69.4509 149.8L71.4923 151.998C72.6832 150.893 73.5561 149.384 74.2292 147.732L71.4509 146.6ZM69.4509 149.8L67.3991 147.611C66.9803 148.004 66.6223 148.14 66.2724 148.175L66.5709 151.16L66.8694 154.145C68.6529 153.967 70.2149 153.196 71.5028 151.989L69.4509 149.8ZM66.5709 151.16H63.5709V151.32H66.5709H69.5709V151.16H66.5709ZM66.5709 151.32L66.1467 154.29C66.5553 154.348 67.0441 154.547 67.6311 155.101L69.6909 152.92L71.7508 150.739C70.4178 149.48 68.8266 148.612 66.9952 148.35L66.5709 151.32ZM69.6909 152.92L67.4978 154.967C67.8714 155.367 68.3963 156.193 68.9732 157.683L71.7709 156.6L74.5686 155.517C73.8656 153.701 73.0039 152.073 71.8841 150.873L69.6909 152.92ZM71.7709 156.6L69.0044 157.76C69.4686 158.867 69.8109 160.796 69.8109 163.8H72.8109H75.8109C75.8109 160.51 75.4599 157.639 74.5375 155.44L71.7709 156.6ZM59.8509 140.68H62.8509C62.8509 138.548 62.6884 136.651 62.2555 135.136L59.3709 135.96L56.4864 136.784C56.6935 137.509 56.8509 138.759 56.8509 140.68H59.8509ZM59.3709 135.96L62.2555 135.136C61.799 133.538 60.9237 132.02 59.3932 131.036L57.7709 133.56L56.1487 136.084C56.1516 136.085 56.1581 136.09 56.1696 136.101C56.1816 136.113 56.2043 136.138 56.2348 136.184C56.2974 136.278 56.3942 136.462 56.4864 136.784L59.3709 135.96ZM57.7709 133.56L59.5147 131.119C58.1603 130.151 56.5566 129.753 54.9413 129.683L54.8109 132.68L54.6806 135.677C55.5186 135.714 55.8882 135.902 56.0272 136.001L57.7709 133.56ZM54.8109 132.68L55.0708 129.691C53.7298 129.575 52.1443 129.52 50.3309 129.52V132.52V135.52C52.0376 135.52 53.4387 135.572 54.5511 135.669L54.8109 132.68ZM50.3309 132.52V129.52H37.6109V132.52V135.52H50.3309V132.52ZM37.6109 132.52H34.6109V147.56H37.6109H40.6109V132.52H37.6109ZM37.6109 147.56V150.56H50.5709V147.56V144.56H37.6109V147.56ZM50.5709 147.56V150.56C52.46 150.56 54.0301 150.533 55.2672 150.477L55.1309 147.48L54.9947 144.483C53.8851 144.534 52.4152 144.56 50.5709 144.56V147.56ZM55.1309 147.48L55.3908 150.469C56.8651 150.341 58.3405 150 59.5832 149.235L58.0109 146.68L56.4386 144.125C56.2947 144.214 55.8501 144.406 54.8711 144.491L55.1309 147.48ZM58.0109 146.68L59.5832 149.235C61.0084 148.358 61.889 147.023 62.329 145.526L59.4509 144.68L56.5728 143.833C56.521 144.01 56.4711 144.087 56.4563 144.107C56.4458 144.122 56.4446 144.121 56.4386 144.125L58.0109 146.68ZM59.4509 144.68L62.3415 145.483C62.7144 144.141 62.8509 142.495 62.8509 140.68H59.8509H56.8509C56.8509 142.279 56.7208 143.299 56.5604 143.877L59.4509 144.68ZM60.2509 162.92H63.2509C63.2509 160.817 63.1179 158.979 62.7614 157.552L59.8509 158.28L56.9405 159.008C57.1173 159.715 57.2509 160.97 57.2509 162.92H60.2509ZM59.8509 158.28L62.7694 157.585C62.3784 155.943 61.5284 154.369 59.9532 153.356L58.3309 155.88L56.7087 158.404C56.6905 158.392 56.7009 158.389 56.7365 158.445C56.7788 158.512 56.86 158.67 56.9325 158.975L59.8509 158.28ZM58.3309 155.88L60.1601 153.502C58.8162 152.468 57.1836 152.072 55.5812 152.003L55.4509 155L55.3206 157.997C56.1716 158.034 56.459 158.225 56.5018 158.258L58.3309 155.88ZM55.4509 155L55.7108 152.011C54.364 151.894 52.6956 151.84 50.7309 151.84V154.84V157.84C52.6063 157.84 54.0845 157.892 55.191 157.989L55.4509 155ZM50.7309 154.84V151.84H37.6109V154.84V157.84H50.7309V154.84ZM37.6109 154.84H34.6109V171.16H37.6109H40.6109V154.84H37.6109ZM37.6109 171.16V174.16H50.9709V171.16V168.16H37.6109V171.16ZM50.9709 171.16V174.16C52.7047 174.16 54.1932 174.133 55.4272 174.077L55.2909 171.08L55.1547 168.083C54.042 168.134 52.6505 168.16 50.9709 168.16V171.16ZM55.2909 171.08L55.5508 174.069C57.1255 173.932 58.7032 173.495 60.0001 172.498L58.1709 170.12L56.3418 167.742C56.252 167.811 55.9097 168.015 55.0311 168.091L55.2909 171.08ZM58.1709 170.12L59.9146 172.561C61.3106 171.564 62.1753 170.146 62.6444 168.582L59.7709 167.72L56.8975 166.858C56.7266 167.428 56.5246 167.609 56.4272 167.679L58.1709 170.12ZM59.7709 167.72L62.6555 168.544C63.0897 167.024 63.2509 165.097 63.2509 162.92H60.2509H57.2509C57.2509 164.903 57.0922 166.176 56.8864 166.896L59.7709 167.72ZM83.7322 179H80.7322V182H83.7322V179ZM83.7322 124.6V121.6H80.7322V124.6H83.7322ZM126.052 124.6H129.052V121.6H126.052V124.6ZM126.052 132.52V135.52H129.052V132.52H126.052ZM95.8922 132.52V129.52H92.8922V132.52H95.8922ZM95.8922 147.56H92.8922V150.56H95.8922V147.56ZM123.572 147.56H126.572V144.56H123.572V147.56ZM123.572 154.84V157.84H126.572V154.84H123.572ZM95.8922 154.84V151.84H92.8922V154.84H95.8922ZM95.8922 171.16H92.8922V174.16H95.8922V171.16ZM126.532 171.16H129.532V168.16H126.532V171.16ZM126.532 179V182H129.532V179H126.532ZM83.7322 179H86.7322V124.6H83.7322H80.7322V179H83.7322ZM83.7322 124.6V127.6H126.052V124.6V121.6H83.7322V124.6ZM126.052 124.6H123.052V132.52H126.052H129.052V124.6H126.052ZM126.052 132.52V129.52H95.8922V132.52V135.52H126.052V132.52ZM95.8922 132.52H92.8922V147.56H95.8922H98.8922V132.52H95.8922ZM95.8922 147.56V150.56H123.572V147.56V144.56H95.8922V147.56ZM123.572 147.56H120.572V154.84H123.572H126.572V147.56H123.572ZM123.572 154.84V151.84H95.8922V154.84V157.84H123.572V154.84ZM95.8922 154.84H92.8922V171.16H95.8922H98.8922V154.84H95.8922ZM95.8922 171.16V174.16H126.532V171.16V168.16H95.8922V171.16ZM126.532 171.16H123.532V179H126.532H129.532V171.16H126.532ZM126.532 179V176H83.7322V179V182H126.532V179ZM162.377 133.08V130.08H159.377V133.08H162.377ZM162.377 179V182H165.377V179H162.377ZM150.217 179H147.217V182H150.217V179ZM150.217 133.08H153.217V130.08H150.217V133.08ZM132.857 133.08H129.857V136.08H132.857V133.08ZM132.857 124.6V121.6H129.857V124.6H132.857ZM179.657 124.6H182.657V121.6H179.657V124.6ZM179.657 133.08V136.08H182.657V133.08H179.657ZM162.377 133.08H159.377V179H162.377H165.377V133.08H162.377ZM162.377 179V176H150.217V179V182H162.377V179ZM150.217 179H153.217V133.08H150.217H147.217V179H150.217ZM150.217 133.08V130.08H132.857V133.08V136.08H150.217V133.08ZM132.857 133.08H135.857V124.6H132.857H129.857V133.08H132.857ZM132.857 124.6V127.6H179.657V124.6V121.6H132.857V124.6ZM179.657 124.6H176.657V133.08H179.657H182.657V124.6H179.657ZM179.657 133.08V130.08H162.377V133.08V136.08H179.657V133.08ZM223.117 179L220.298 180.026L221.016 182H223.117V179ZM217.757 164.28L220.576 163.254L219.857 161.28H217.757V164.28ZM195.277 164.28V161.28H193.176L192.458 163.254L195.277 164.28ZM189.917 179V182H192.017L192.735 180.026L189.917 179ZM177.277 179L174.472 177.936L172.93 182H177.277V179ZM197.917 124.6V121.6H195.846L195.112 123.536L197.917 124.6ZM215.277 124.6L218.081 123.536L217.347 121.6H215.277V124.6ZM235.917 179V182H240.263L238.721 177.936L235.917 179ZM206.557 132.52L209.374 131.489L206.557 123.787L203.739 131.489L206.557 132.52ZM197.837 156.36L195.019 155.329L193.545 159.36H197.837V156.36ZM215.277 156.36V159.36H219.568L218.094 155.329L215.277 156.36ZM223.117 179L225.936 177.974L220.576 163.254L217.757 164.28L214.938 165.306L220.298 180.026L223.117 179ZM217.757 164.28V161.28H195.277V164.28V167.28H217.757V164.28ZM195.277 164.28L192.458 163.254L187.098 177.974L189.917 179L192.735 180.026L198.095 165.306L195.277 164.28ZM189.917 179V176H177.277V179V182H189.917V179ZM177.277 179L180.081 180.064L200.721 125.664L197.917 124.6L195.112 123.536L174.472 177.936L177.277 179ZM197.917 124.6V127.6H215.277V124.6V121.6H197.917V124.6ZM215.277 124.6L212.472 125.664L233.112 180.064L235.917 179L238.721 177.936L218.081 123.536L215.277 124.6ZM235.917 179V176H223.117V179V182H235.917V179ZM206.557 132.52L203.739 131.489L195.019 155.329L197.837 156.36L200.654 157.391L209.374 133.551L206.557 132.52ZM197.837 156.36V159.36H215.277V156.36V153.36H197.837V156.36ZM215.277 156.36L218.094 155.329L209.374 131.489L206.557 132.52L203.739 133.551L212.459 157.391L215.277 156.36Z" fill="#084E5C" mask="url(#path-4-outside-1_9687_16089)"/>
</g>
</g>
<defs>
<filter id="filter0_d_9687_16089" x="1" y="-21" width="254" height="298" filterUnits="userSpaceOnUse" color-interpolation-filters="sRGB">
<feFlood flood-opacity="0" result="BackgroundImageFix"/>
<feColorMatrix in="SourceAlpha" type="matrix" values="0 0 0 0 0 0 0 0 0 0 0 0 0 0 0 0 0 0 127 0" result="hardAlpha"/>
<feOffset/>
<feGaussianBlur stdDeviation="23.5"/>
<feComposite in2="hardAlpha" operator="out"/>
<feColorMatrix type="matrix" values="0 0 0 0 0.0392157 0 0 0 0 0.0392157 0 0 0 0 0.054902 0 0 0 1 0"/>
<feBlend mode="normal" in2="BackgroundImageFix" result="effect1_dropShadow_9687_16089"/>
<feBlend mode="normal" in="SourceGraphic" in2="effect1_dropShadow_9687_16089" result="shape"/>
</filter>
<filter id="filter1_ddd_9687_16089" x="12.2512" y="111.402" width="238.212" height="80.7984" filterUnits="userSpaceOnUse" color-interpolation-filters="sRGB">
<feFlood flood-opacity="0" result="BackgroundImageFix"/>
<feColorMatrix in="SourceAlpha" type="matrix" values="0 0 0 0 0 0 0 0 0 0 0 0 0 0 0 0 0 0 127 0" result="hardAlpha"/>
<feOffset/>
<feGaussianBlur stdDeviation="5.1"/>
<feComposite in2="hardAlpha" operator="out"/>
<feColorMatrix type="matrix" values="0 0 0 0 0.0392157 0 0 0 0 0.0392157 0 0 0 0 0.054902 0 0 0 1 0"/>
<feBlend mode="normal" in2="BackgroundImageFix" result="effect1_dropShadow_9687_16089"/>
<feColorMatrix in="SourceAlpha" type="matrix" values="0 0 0 0 0 0 0 0 0 0 0 0 0 0 0 0 0 0 127 0" result="hardAlpha"/>
<feOffset/>
<feGaussianBlur stdDeviation="5.1"/>
<feComposite in2="hardAlpha" operator="out"/>
<feColorMatrix type="matrix" values="0 0 0 0 0.0392157 0 0 0 0 0.0392157 0 0 0 0 0.054902 0 0 0 1 0"/>
<feBlend mode="normal" in2="effect1_dropShadow_9687_16089" result="effect2_dropShadow_9687_16089"/>
<feColorMatrix in="SourceAlpha" type="matrix" values="0 0 0 0 0 0 0 0 0 0 0 0 0 0 0 0 0 0 127 0" result="hardAlpha"/>
<feOffset/>
<feGaussianBlur stdDeviation="5.1"/>
<feComposite in2="hardAlpha" operator="out"/>
<feColorMatrix type="matrix" values="0 0 0 0 0.0392157 0 0 0 0 0.0392157 0 0 0 0 0.054902 0 0 0 1 0"/>
<feBlend mode="normal" in2="effect2_dropShadow_9687_16089" result="effect3_dropShadow_9687_16089"/>
<feBlend mode="normal" in="SourceGraphic" in2="effect3_dropShadow_9687_16089" result="shape"/>
</filter>
<linearGradient id="paint0_linear_9687_16089" x1="128" y1="26" x2="128" y2="230" gradientUnits="userSpaceOnUse">
<stop stop-color="#95F9FF"/>
<stop offset="1" stop-color="#59BDCD"/>
</linearGradient>
<linearGradient id="paint1_linear_9687_16089" x1="128" y1="26" x2="128" y2="230" gradientUnits="userSpaceOnUse">
<stop stop-color="#95F9FF"/>
<stop offset="1" stop-color="#59BDCD"/>
</linearGradient>
<linearGradient id="paint2_linear_9687_16089" x1="128" y1="26" x2="128" y2="230" gradientUnits="userSpaceOnUse">
<stop stop-color="#95F9FF"/>
<stop offset="1" stop-color="#59BDCD"/>
</linearGradient>
<linearGradient id="paint3_linear_9687_16089" x1="128" y1="118.342" x2="128" y2="288.227" gradientUnits="userSpaceOnUse">
<stop offset="0.192308" stop-color="#B9F593"/>
<stop offset="1" stop-color="#59BDCD"/>
</linearGradient>
<clipPath id="clip0_9687_16089">
<rect width="256" height="256" fill="white"/>
</clipPath>
</defs>
</svg>
